<svg width="554" height="96" viewBox="0 0 554 96" fill="none" xmlns="http://www.w3.org/2000/svg">
<path d="M58.3872 70.8066L63.0829 69.089L61.8823 65.8066H58.3872V70.8066ZM21.1558 70.8066V65.8066H17.6434L16.4521 69.1109L21.1558 70.8066ZM12.7939 94V99H16.3063L17.4976 95.6958L12.7939 94ZM0.708984 94L-3.96203 92.2163L-6.55251 99H0.708984V94ZM34.6445 5.13281V0.132812H31.2017L29.9735 3.3491L34.6445 5.13281ZM44.8984 5.13281L49.5684 3.3463L48.339 0.132812H44.8984V5.13281ZM78.895 94V99H86.1612L83.565 92.2135L78.895 94ZM66.8711 94L62.1754 95.7176L63.376 99H66.8711V94ZM24.6958 61.1631L19.9954 59.4583L17.5636 66.1631H24.6958V61.1631ZM54.9082 61.1631V66.1631H62.0503L59.6064 59.4522L54.9082 61.1631ZM39.7715 19.5981L44.4696 17.8872L39.762 4.96015L35.0711 17.8933L39.7715 19.5981ZM58.3872 65.8066H21.1558V75.8066H58.3872V65.8066ZM16.4521 69.1109L8.0903 92.3042L17.4976 95.6958L25.8594 72.5024L16.4521 69.1109ZM12.7939 89H0.708984V99H12.7939V89ZM5.38 95.7837L39.3155 6.91652L29.9735 3.3491L-3.96203 92.2163L5.38 95.7837ZM34.6445 10.1328H44.8984V0.132812H34.6445V10.1328ZM40.2285 6.91932L74.2251 95.7865L83.565 92.2135L49.5684 3.3463L40.2285 6.91932ZM78.895 89H66.8711V99H78.895V89ZM71.5668 92.2824L63.0829 69.089L53.6915 72.5243L62.1754 95.7176L71.5668 92.2824ZM24.6958 66.1631H54.9082V56.1631H24.6958V66.1631ZM59.6064 59.4522L44.4696 17.8872L35.0733 21.3091L50.21 62.874L59.6064 59.4522ZM35.0711 17.8933L19.9954 59.4583L29.3962 62.8679L44.4719 21.303L35.0711 17.8933ZM121.009 38.0918L120.187 43.0238L126.009 43.9941V38.0918H121.009ZM100.379 47.125L95.7684 45.1914L95.3794 46.119V47.125H100.379ZM100.379 94V99H105.379V94H100.379ZM89.0879 94H84.0879V99H89.0879V94ZM89.0879 27.96V22.96H84.0879V27.96H89.0879ZM100.074 27.96L105.073 27.84L104.956 22.96H100.074V27.96ZM100.257 35.5894L95.2588 35.7093L95.6575 52.3247L104.492 38.2472L100.257 35.5894ZM121.009 27.5938H126.009V24.5036L123.245 23.1216L121.009 27.5938ZM121.831 33.1598C119.814 32.8236 117.684 32.6646 115.455 32.6646V42.6646C117.214 42.6646 118.787 42.7904 120.187 43.0238L121.831 33.1598ZM115.455 32.6646C111.045 32.6646 106.96 33.6074 103.474 35.7945C99.9606 37.9994 97.4264 41.2378 95.7684 45.1914L104.99 49.0586C105.977 46.7052 107.278 45.2134 108.79 44.2648C110.33 43.2985 112.46 42.6646 115.455 42.6646V32.6646ZM95.3794 47.125V94H105.379V47.125H95.3794ZM100.379 89H89.0879V99H100.379V89ZM94.0879 94V27.96H84.0879V94H94.0879ZM89.0879 32.96H100.074V22.96H89.0879V32.96ZM95.0757 28.0799L95.2588 35.7093L105.256 35.4694L105.073 27.84L95.0757 28.0799ZM104.492 38.2472C107.308 33.7601 110.982 31.7393 116.004 31.7393V21.7393C107.437 21.7393 100.612 25.6185 96.0223 32.9315L104.492 38.2472ZM116.004 31.7393C116.899 31.7393 117.574 31.7982 118.062 31.8816C118.302 31.9226 118.478 31.9662 118.6 32.0033C118.722 32.0404 118.774 32.0661 118.773 32.0659L123.245 23.1216C121.079 22.0383 118.491 21.7393 116.004 21.7393V31.7393ZM116.009 27.5938V38.0918H126.009V27.5938H116.009ZM172.279 73.187V68.187H167.704L167.298 72.7443L172.279 73.187ZM182.96 73.187L187.953 73.4554L188.236 68.187H182.96V73.187ZM169.41 92.1689L167.156 87.7059L167.147 87.7105L167.138 87.7151L169.41 92.1689ZM135.23 86.2485L131.474 89.5482L131.486 89.5617L131.498 89.5751L135.23 86.2485ZM140.968 30.8896L138.321 26.6475L138.312 26.653L138.304 26.6585L140.968 30.8896ZM175.086 33.3921L171.725 37.0932L171.732 37.1001L171.74 37.107L175.086 33.3921ZM182.96 50.665V55.665H188.195L187.955 50.4354L182.96 50.665ZM172.279 50.665L167.293 51.0449L167.645 55.665H172.279V50.665ZM167.396 40.167L163.938 43.778L163.964 43.8029L163.99 43.8273L167.396 40.167ZM143.287 42.2422L139.315 39.2049L139.311 39.2108L143.287 42.2422ZM156.715 91.0044C161.841 91.0044 166.484 89.4196 170.423 86.2261L164.125 78.4585C162.042 80.1477 159.645 81.0044 156.715 81.0044V91.0044ZM170.423 86.2261C174.421 82.9844 176.807 78.7191 177.259 73.6297L167.298 72.7443C167.1 74.9792 166.149 76.8174 164.125 78.4585L170.423 86.2261ZM172.279 78.187H182.96V68.187H172.279V78.187ZM177.967 72.9186C177.819 75.6728 176.881 78.3843 174.962 81.1164L183.145 86.8641C186.028 82.7603 187.694 78.2696 187.953 73.4554L177.967 72.9186ZM174.962 81.1164C173.071 83.8082 170.511 86.0114 167.156 87.7059L171.664 96.632C176.366 94.2575 180.235 91.0082 183.145 86.8641L174.962 81.1164ZM167.138 87.7151C163.854 89.3907 160.401 90.2207 156.715 90.2207V100.221C161.981 100.221 166.991 99.0162 171.683 96.6228L167.138 87.7151ZM156.715 90.2207C148.954 90.2207 143.223 87.7019 138.963 82.922L131.498 89.5751C137.899 96.758 146.491 100.221 156.715 100.221V90.2207ZM138.987 82.9488C134.714 78.0845 132.296 71.1646 132.296 61.5903H122.296C122.296 72.8493 125.167 82.3683 131.474 89.5482L138.987 82.9488ZM132.296 61.5903V59.6982H122.296V61.5903H132.296ZM132.296 59.6982C132.296 53.8877 133.36 48.9181 135.358 44.6799L126.314 40.4148C123.592 46.1864 122.296 52.6507 122.296 59.6982H132.296ZM135.358 44.6799C137.34 40.4783 140.098 37.346 143.632 35.1208L138.304 26.6585C133.049 29.9672 129.052 34.6067 126.314 40.4148L135.358 44.6799ZM143.614 35.1318C147.141 32.9318 151.422 31.7393 156.654 31.7393V21.7393C149.841 21.7393 143.665 23.3137 138.321 26.6475L143.614 35.1318ZM156.654 31.7393C162.98 31.7393 167.877 33.598 171.725 37.0932L178.448 29.691C172.531 24.3158 165.138 21.7393 156.654 21.7393V31.7393ZM171.74 37.107C175.596 40.5808 177.696 45.0469 177.965 50.8947L187.955 50.4354C187.573 42.123 184.424 35.0739 178.433 29.6771L171.74 37.107ZM182.96 45.665H172.279V55.665H182.96V45.665ZM177.264 50.2852C176.851 44.8565 174.721 40.153 170.802 36.5066L163.99 43.8273C165.931 45.6335 167.056 47.9287 167.293 51.0449L177.264 50.2852ZM170.854 36.556C166.967 32.8331 162.119 31.0166 156.654 31.0166V41.0166C159.734 41.0166 162.047 41.967 163.938 43.778L170.854 36.556ZM156.654 31.0166C149.535 31.0166 143.537 33.6842 139.315 39.2049L147.259 45.2794C149.385 42.4994 152.298 41.0166 156.654 41.0166V31.0166ZM139.311 39.2108C135.251 44.5366 133.587 51.7498 133.587 60.1255H143.587C143.587 52.8761 145.057 48.1672 147.263 45.2736L139.311 39.2108ZM133.587 60.1255V62.2617H143.587V60.1255H133.587ZM133.587 62.2617C133.587 70.4697 135.265 77.5645 139.311 82.8712L147.263 76.8084C145.043 73.8957 143.587 69.2718 143.587 62.2617H133.587ZM139.311 82.8712C143.518 88.3898 149.561 91.0044 156.715 91.0044V81.0044C152.232 81.0044 149.322 79.5093 147.263 76.8084L139.311 82.8712ZM206.947 35.9556H201.947V50.0107L210.823 39.1134L206.947 35.9556ZM247.596 50.3599H252.596V50.3405L252.596 50.3211L247.596 50.3599ZM247.596 94V99H252.596V94H247.596ZM236.305 94H231.305V99H236.305V94ZM236.305 50.2988H241.305V50.2775L241.305 50.2561L236.305 50.2988ZM233.009 39.7397L229.345 43.142L229.361 43.1594L229.377 43.1767L233.009 39.7397ZM206.947 46.9419L202.452 44.752L201.947 45.7887V46.9419H206.947ZM206.947 94V99H211.947V94H206.947ZM195.655 94H190.655V99H195.655V94ZM195.655 0.25V-4.75H190.655V0.25H195.655ZM206.947 0.25H211.947V-4.75H206.947V0.25ZM210.823 39.1134C214.866 34.1504 219.945 31.7393 226.478 31.7393V21.7393C216.979 21.7393 209.037 25.4724 203.07 32.7978L210.823 39.1134ZM226.478 31.7393C232.516 31.7393 236.207 33.4145 238.498 35.977C240.889 38.6518 242.54 43.1606 242.596 50.3986L252.596 50.3211C252.53 41.8121 250.601 34.5106 245.953 29.3118C241.204 24.0008 234.397 21.7393 226.478 21.7393V31.7393ZM242.596 50.3599V94H252.596V50.3599H242.596ZM247.596 89H236.305V99H247.596V89ZM241.305 94V50.2988H231.305V94H241.305ZM241.305 50.2561C241.258 44.8681 240.022 39.8755 236.64 36.3028L229.377 43.1767C230.309 44.1613 231.27 46.2081 231.305 50.3416L241.305 50.2561ZM236.673 36.3375C233.25 32.652 228.33 31.3218 223.06 31.3218V41.3218C226.823 41.3218 228.535 42.2702 229.345 43.142L236.673 36.3375ZM223.06 31.3218C218.454 31.3218 214.213 32.569 210.533 35.1666L216.3 43.3363C218.154 42.0277 220.342 41.3218 223.06 41.3218V31.3218ZM210.533 35.1666C207.048 37.6265 204.351 40.8542 202.452 44.752L211.442 49.1317C212.635 46.6819 214.251 44.7827 216.3 43.3363L210.533 35.1666ZM201.947 46.9419V94H211.947V46.9419H201.947ZM206.947 89H195.655V99H206.947V89ZM200.655 94V0.25H190.655V94H200.655ZM195.655 5.25H206.947V-4.75H195.655V5.25ZM201.947 0.25V35.9556H211.947V0.25H201.947ZM276.771 94V99H281.771V94H276.771ZM265.479 94H260.479V99H265.479V94ZM265.479 27.96V22.96H260.479V27.96H265.479ZM276.771 27.96H281.771V22.96H276.771V27.96ZM266.212 5.8042L262.501 2.45277L262.471 2.48626L262.442 2.5203L266.212 5.8042ZM266.212 15.0205L262.495 18.3653L262.526 18.399L262.557 18.4321L266.212 15.0205ZM276.771 89H265.479V99H276.771V89ZM270.479 94V27.96H260.479V94H270.479ZM265.479 32.96H276.771V22.96H265.479V32.96ZM271.771 27.96V94H281.771V27.96H271.771ZM269.564 10.4429C269.564 9.69587 269.754 9.35044 269.982 9.0881L262.442 2.5203C260.473 4.78074 259.564 7.52777 259.564 10.4429H269.564ZM269.922 9.15563C269.933 9.14417 269.957 9.11057 270.086 9.06207C270.241 9.00347 270.587 8.91211 271.217 8.91211V-1.08789C268.045 -1.08789 264.848 -0.145227 262.501 2.45277L269.922 9.15563ZM271.217 8.91211C271.847 8.91211 272.193 9.00347 272.348 9.06207C272.476 9.11057 272.501 9.14417 272.511 9.15563L279.932 2.45277C277.586 -0.145227 274.389 -1.08789 271.217 -1.08789V8.91211ZM272.511 9.15563C272.753 9.42367 272.931 9.746 272.931 10.4429H282.931C282.931 7.47763 281.969 4.70752 279.932 2.45277L272.511 9.15563ZM272.931 10.4429C272.931 11.1406 272.755 11.407 272.566 11.6089L279.877 18.4321C281.967 16.1926 282.931 13.4073 282.931 10.4429H272.931ZM272.566 11.6089C272.558 11.6178 272.551 11.6244 272.537 11.6335C272.522 11.6434 272.48 11.6681 272.398 11.6982C272.227 11.7607 271.863 11.8516 271.217 11.8516V21.8516C274.341 21.8516 277.519 20.959 279.877 18.4321L272.566 11.6089ZM271.217 11.8516C270.57 11.8516 270.206 11.7607 270.036 11.6982C269.953 11.6681 269.912 11.6434 269.897 11.6335C269.883 11.6244 269.875 11.6178 269.867 11.6089L262.557 18.4321C264.915 20.959 268.093 21.8516 271.217 21.8516V11.8516ZM269.928 11.6757C269.753 11.4808 269.564 11.1916 269.564 10.4429H259.564C259.564 13.3562 260.474 16.1188 262.495 18.3653L269.928 11.6757ZM300.453 86.4316L296.831 89.8787L296.837 89.8849L296.843 89.8912L300.453 86.4316ZM295.753 43.2188L291.26 41.0252L291.256 41.0326L291.253 41.04L295.753 43.2188ZM306.251 31.1338L308.962 35.3347L308.972 35.3286L306.251 31.1338ZM340.919 35.2231L337.094 38.443L340.919 35.2231ZM348.06 64.2148V69.2148H353.06V64.2148H348.06ZM303.321 64.2148V59.2148H298.195L298.323 64.3398L303.321 64.2148ZM308.998 80.0229L305.279 83.3657L305.297 83.3854L305.315 83.405L308.998 80.0229ZM340.309 77.0933L343.381 73.1484L339.421 70.0647L336.352 74.036L340.309 77.0933ZM347.206 82.4644L351.396 85.1914L353.902 81.3416L350.278 78.5195L347.206 82.4644ZM309.425 41.0215L313.071 44.4427L313.082 44.4315L313.092 44.4203L309.425 41.0215ZM303.688 54.9375L298.725 54.3298L298.038 59.9375H303.688V54.9375ZM336.769 54.9375V59.9375H341.769V54.9375H336.769ZM336.769 54.083H341.769V53.9413L341.761 53.7998L336.769 54.083ZM332.13 40.7773L328.361 44.063L328.372 44.0751L328.382 44.0871L332.13 40.7773ZM322.303 90.2207C314.559 90.2207 308.632 87.7407 304.063 82.9721L296.843 89.8912C303.503 96.8413 312.144 100.221 322.303 100.221V90.2207ZM304.075 82.9846C299.522 78.2014 297.03 71.6589 297.03 62.811H287.03C287.03 73.6572 290.153 82.8618 296.831 89.8787L304.075 82.9846ZM297.03 62.811V60.7358H287.03V62.811H297.03ZM297.03 60.7358C297.03 54.8261 298.146 49.7501 300.253 45.3975L291.253 41.04C288.396 46.9413 287.03 53.5434 287.03 60.7358H297.03ZM300.246 45.4123C302.402 40.9962 305.313 37.6903 308.962 35.3347L303.539 26.9329C298.237 30.3553 294.149 35.1061 291.26 41.0252L300.246 45.4123ZM308.972 35.3286C312.7 32.9102 316.642 31.7393 320.899 31.7393V21.7393C314.659 21.7393 308.835 23.498 303.53 26.939L308.972 35.3286ZM320.899 31.7393C328.275 31.7393 333.441 34.1037 337.094 38.443L344.744 32.0033C338.875 25.0307 330.695 21.7393 320.899 21.7393V31.7393ZM337.094 38.443C340.829 42.8811 343.06 49.6615 343.06 59.5151H353.06C353.06 48.2913 350.53 38.877 344.744 32.0033L337.094 38.443ZM343.06 59.5151V64.2148H353.06V59.5151H343.06ZM348.06 59.2148H303.321V69.2148H348.06V59.2148ZM298.323 64.3398C298.509 71.7893 300.708 78.2807 305.279 83.3657L312.716 76.6802C310.044 73.7086 308.459 69.6612 308.32 64.0899L298.323 64.3398ZM305.315 83.405C309.963 88.4663 315.957 91.0044 322.914 91.0044V81.0044C318.639 81.0044 315.356 79.5549 312.68 76.6409L305.315 83.405ZM322.914 91.0044C327.579 91.0044 331.88 90.0497 335.581 87.8727L330.51 79.2533C328.677 80.3315 326.224 81.0044 322.914 81.0044V91.0044ZM335.581 87.8727C338.928 85.9037 341.823 83.311 344.265 80.1505L336.352 74.036C334.644 76.2466 332.697 77.967 330.51 79.2533L335.581 87.8727ZM337.236 81.0381L344.133 86.4092L350.278 78.5195L343.381 73.1484L337.236 81.0381ZM343.015 79.7373C338.499 86.6773 331.862 90.2207 322.303 90.2207V100.221C334.88 100.221 344.845 95.2599 351.396 85.1914L343.015 79.7373ZM320.899 31.0166C314.953 31.0166 309.798 33.2631 305.758 37.6227L313.092 44.4203C315.236 42.1067 317.731 41.0166 320.899 41.0166V31.0166ZM305.779 37.6003C301.752 41.8919 299.543 47.6424 298.725 54.3298L308.65 55.5452C309.296 50.2697 310.913 46.7428 313.071 44.4427L305.779 37.6003ZM303.688 59.9375H336.769V49.9375H303.688V59.9375ZM341.769 54.9375V54.083H331.769V54.9375H341.769ZM341.761 53.7998C341.395 47.3573 339.622 41.7073 335.878 37.4676L328.382 44.0871C330.172 46.1137 331.491 49.3341 331.777 54.3662L341.761 53.7998ZM335.899 37.4917C332.061 33.0895 326.869 31.0166 320.899 31.0166V41.0166C324.37 41.0166 326.665 42.1175 328.361 44.063L335.899 37.4917ZM413.124 65.9849L418.071 65.2633L418.042 65.0606L417.996 64.8609L413.124 65.9849ZM414.833 77.7036L409.885 78.4251L419.698 78.8566L414.833 77.7036ZM417.335 67.1445L412.524 65.7809L412.495 65.8856L412.47 65.9915L417.335 67.1445ZM434.913 5.13281V0.132812H431.133L430.103 3.76922L434.913 5.13281ZM444.801 5.13281L449.62 3.79998L448.606 0.132812H444.801V5.13281ZM461.952 67.1445L466.827 66.0364L466.802 65.9234L466.771 65.8117L461.952 67.1445ZM464.393 77.8867L459.517 78.9948L469.332 78.6678L464.393 77.8867ZM466.285 65.9238L461.409 64.8174L461.372 64.979L461.347 65.1427L466.285 65.9238ZM480.079 5.13281V0.132812H476.087L475.203 4.0264L480.079 5.13281ZM491.859 5.13281L496.718 6.31091L498.216 0.132812H491.859V5.13281ZM470.313 94V99H474.246L475.173 95.1781L470.313 94ZM459.632 94L454.821 95.3604L455.85 99H459.632V94ZM441.322 29.2417L436.426 30.2562L436.462 30.4307L436.51 30.6021L441.322 29.2417ZM439.918 22.4668L444.814 21.4523H435.022L439.918 22.4668ZM438.514 29.2417L443.312 30.6481L443.369 30.4541L443.41 30.2562L438.514 29.2417ZM419.532 94V99H423.277L424.33 95.4064L419.532 94ZM408.851 94L403.991 95.1749L404.916 99H408.851V94ZM387.367 5.13281V0.132812H381.014L382.507 6.30776L387.367 5.13281ZM399.085 5.13281L403.957 4.00887L403.063 0.132812H399.085V5.13281ZM408.176 66.7064L409.885 78.4251L419.78 76.9821L418.071 65.2633L408.176 66.7064ZM419.698 78.8566L422.2 68.2976L412.47 65.9915L409.967 76.5506L419.698 78.8566ZM422.145 68.5081L439.724 6.49641L430.103 3.76922L412.524 65.7809L422.145 68.5081ZM434.913 10.1328H444.801V0.132812H434.913V10.1328ZM439.982 6.46565L457.133 68.4774L466.771 65.8117L449.62 3.79998L439.982 6.46565ZM457.076 68.2526L459.517 78.9948L469.269 76.7786L466.827 66.0364L457.076 68.2526ZM469.332 78.6678L471.224 66.7049L461.347 65.1427L459.454 77.1056L469.332 78.6678ZM471.161 67.0302L484.955 6.23923L475.203 4.0264L461.409 64.8174L471.161 67.0302ZM480.079 10.1328H491.859V0.132812H480.079V10.1328ZM487 3.95472L465.454 92.8219L475.173 95.1781L496.718 6.31091L487 3.95472ZM470.313 89H459.632V99H470.313V89ZM464.444 92.6396L446.133 27.8813L436.51 30.6021L454.821 95.3604L464.444 92.6396ZM446.218 28.2272L444.814 21.4523L435.022 23.4813L436.426 30.2562L446.218 28.2272ZM435.022 21.4523L433.618 28.2272L443.41 30.2562L444.814 23.4813L435.022 21.4523ZM433.716 27.8353L414.734 92.5936L424.33 95.4064L443.312 30.6481L433.716 27.8353ZM419.532 89H408.851V99H419.532V89ZM413.711 92.8251L392.227 3.95787L382.507 6.30776L403.991 95.1749L413.711 92.8251ZM387.367 10.1328H399.085V0.132812H387.367V10.1328ZM394.213 6.25675L408.251 67.1088L417.996 64.8609L403.957 4.00887L394.213 6.25675ZM542.701 87.4692L547.698 87.2825L547.218 74.4401L538.892 84.2301L542.701 87.4692ZM507.24 89.1172L503.507 92.4436L503.524 92.4631L503.542 92.4824L507.24 89.1172ZM501.686 70.9287H496.686V70.9414L496.686 70.9541L501.686 70.9287ZM501.686 27.96V22.96H496.686V27.96H501.686ZM512.977 27.96H517.977V22.96H512.977V27.96ZM542.396 75.9946L546.967 78.02L547.396 77.0526V75.9946H542.396ZM542.396 27.96V22.96H537.396V27.96H542.396ZM553.688 27.96H558.688V22.96H553.688V27.96ZM553.688 94V99H558.688V94H553.688ZM542.945 94L537.949 94.1868L538.129 99H542.945V94ZM538.892 84.2301C535.681 88.0063 530.794 90.2207 523.353 90.2207V100.221C532.921 100.221 540.932 97.2675 546.51 90.7084L538.892 84.2301ZM523.353 90.2207C517.303 90.2207 513.444 88.5058 510.938 85.752L503.542 92.4824C508.441 97.8666 515.324 100.221 523.353 100.221V90.2207ZM510.973 85.7908C508.422 82.9285 506.723 78.2468 506.685 70.9033L496.686 70.9541C496.73 79.6425 498.733 87.0865 503.507 92.4436L510.973 85.7908ZM506.686 70.9287V27.96H496.686V70.9287H506.686ZM501.686 32.96H512.977V22.96H501.686V32.96ZM507.977 27.96V70.6235H517.977V27.96H507.977ZM507.977 70.6235C507.977 76.1769 509.085 81.2697 512.149 85.0387C515.374 89.0056 520.039 90.6382 525.184 90.6382V80.6382C522.191 80.6382 520.752 79.7683 519.908 78.7304C518.904 77.4944 517.977 75.0799 517.977 70.6235H507.977ZM525.184 90.6382C530.094 90.6382 534.588 89.7254 538.401 87.5893C542.28 85.416 545.138 82.1501 546.967 78.02L537.825 73.9693C536.806 76.2682 535.371 77.8241 533.513 78.8653C531.588 79.9437 528.9 80.6382 525.184 80.6382V90.6382ZM547.396 75.9946V27.96H537.396V75.9946H547.396ZM542.396 32.96H553.688V22.96H542.396V32.96ZM548.688 27.96V94H558.688V27.96H548.688ZM553.688 89H542.945V99H553.688V89ZM547.942 93.8132L547.698 87.2825L537.705 87.656L537.949 94.1868L547.942 93.8132Z" fill="white"/>
</svg>
