<svg width="866" height="115" viewBox="0 0 866 115" fill="none" xmlns="http://www.w3.org/2000/svg">
<path d="M8.5 71.25L9.36001 66.3245L4.19694 65.423L3.53949 70.6228L8.5 71.25ZM0.875 101L-3.58243 98.7348L-6.15572 103.798L-0.806682 105.709L0.875 101ZM7.75 104.375L4.58381 108.245L9.42485 112.206L12.2221 106.611L7.75 104.375ZM16.375 72.625L21.3205 73.3616L22.0388 68.5383L17.235 67.6995L16.375 72.625ZM34.125 73L32.7284 68.199L27.2576 69.7905L29.5461 75.0083L34.125 73ZM40.375 95.625L35.4019 96.143L36.0235 102.111L41.7814 100.423L40.375 95.625ZM47.625 93.5L49.0314 98.2981L53.1037 97.1045L52.5879 92.8923L47.625 93.5ZM41 71L45.5789 68.9917L43.8165 64.9734L39.6034 66.199L41 71ZM74.125 65.875V60.875H69.125V65.875H74.125ZM100.625 65.875V70.875H105.625V65.875H100.625ZM100.625 58.5H105.625V53.5H100.625V58.5ZM84.25 58.5H79.25V63.5H84.25V58.5ZM84.25 45.75V40.75H79.25V45.75H84.25ZM99.875 45.75V50.75H104.875V45.75H99.875ZM99.875 38.375H104.875V33.375H99.875V38.375ZM90.375 38.375L85.9504 36.0463L82.0932 43.375H90.375V38.375ZM98.625 20.875L103.17 22.9583L105.492 17.8934L100.206 16.1316L98.625 20.875ZM91.125 18.375L92.7061 13.6316L87.6118 11.9335L86.281 17.1358L91.125 18.375ZM84.5 36.625L79.9836 34.4797L77.6554 39.3811L82.7305 41.3014L84.5 36.625ZM89.125 38.375V43.375L90.8945 33.6986L89.125 38.375ZM69.5 38.375L67.7668 33.685L69.5 43.375V38.375ZM75.25 36.25L76.9833 40.94L80.8617 39.5066L80.182 35.428L75.25 36.25ZM69.25 19.25L73.6589 16.8917L71.6319 13.1021L67.5808 14.5369L69.25 19.25ZM63.25 21.375L61.5808 16.6619L56.2477 18.5507L58.7779 23.6111L63.25 21.375ZM68.875 38.375V43.375H74.7264L73.8138 37.5952L68.875 38.375ZM61.875 38.375V33.375H56.875V38.375H61.875ZM61.875 45.75H56.875V50.75H61.875V45.75ZM76.25 45.75H81.25V40.75H76.25V45.75ZM76.25 58.5V63.5H81.25V58.5H76.25ZM60.875 58.5V53.5H55.875V58.5H60.875ZM60.875 65.875H55.875V70.875H60.875V65.875ZM66.125 65.875H71.125V60.875H66.125V65.875ZM99 94.875L100.048 99.764L104.53 98.8035L103.961 94.2548L99 94.875ZM98.25 87.375L103.24 87.0631L102.878 81.2697L97.2024 82.486L98.25 87.375ZM113.25 6.375H118.25V1.375H113.25V6.375ZM48.875 6.375V1.375H43.875V6.375H48.875ZM48.875 63L44.1316 64.5811L53.875 63H48.875ZM37.625 40.25L41.7967 37.4937L39.5361 34.0724L35.7385 35.6195L37.625 40.25ZM30.875 43L28.9885 38.3695L23.5245 40.5956L26.6167 45.6205L30.875 43ZM36.5 53.5L36.7428 58.4941L44.2861 58.1274L41.0028 51.3263L36.5 53.5ZM18.5 54.375L14.5957 51.2515L7.67102 59.9073L18.7428 59.3691L18.5 54.375ZM43.5 18.25L47.7374 20.9042L50.7371 16.1152L45.6184 13.721L43.5 18.25ZM35.75 14.625L37.8684 10.0959L33.5207 8.06232L31.3112 12.3234L35.75 14.625ZM22.375 37.25L18.375 40.25L22.632 45.926L26.5456 40.008L22.375 37.25ZM15.625 29.25L11.4876 26.4425L9.22114 29.7826L12.0082 32.7024L15.625 29.25ZM30 3.5L34.4851 5.71002L36.9381 0.73181L31.7319 -1.19049L30 3.5ZM21.875 0.499997L23.6069 -4.19049L18.9679 -5.90335L17.2039 -1.28351L21.875 0.499997ZM10.75 24L7.21446 27.5355L11.8164 32.1374L15.0771 26.5052L10.75 24ZM7 20.5L10.3448 16.7835L6.52394 13.3447L3.1923 17.2594L7 20.5ZM2 26.375L-1.8077 23.1344L-4.86692 26.729L-1.45429 29.99L2 26.375ZM17.5 44.5L21.5962 47.3673L23.5226 44.6152L21.7029 41.7915L17.5 44.5ZM9.75 54.875L9.96719 59.8703L12.2358 59.7716L13.6543 57.9985L9.75 54.875ZM1.125 55.25L0.907815 50.2547L-4.4 50.4855L-3.84793 55.7696L1.125 55.25ZM2 63.625L-2.97293 64.1446L-2.47399 68.9201L2.31783 68.6149L2 63.625ZM21.625 62.375H26.625V57.0464L21.3072 57.3851L21.625 62.375ZM21.625 114.5H16.625V119.5H21.625V114.5ZM29.875 114.5V119.5H34.875V114.5H29.875ZM29.875 61.875L29.5592 56.885L24.875 57.1814V61.875H29.875ZM39.75 61.25L44.3353 59.2564L42.9362 56.0383L39.4342 56.26L39.75 61.25ZM42.375 69.25L37.4823 70.28L38.7746 76.4186L44.4703 73.7898L42.375 69.25ZM48.875 66.25H53.875V58.4355L46.7797 61.7102L48.875 66.25ZM48.875 114.75H43.875V119.75H48.875V114.75ZM57.125 114.75V119.75H62.125V114.75H57.125ZM57.125 14.625V9.62499H52.125V14.625H57.125ZM104.75 14.625H109.75V9.62499H104.75V14.625ZM102.625 106.5V111.5H102.817L103.008 111.485L102.625 106.5ZM89.625 106.375L89.8422 101.38L80.9144 100.992L85.2542 108.803L89.625 106.375ZM92.375 114.5L87.4092 115.084L87.9206 119.431L92.2969 119.499L92.375 114.5ZM109 113.125L110.737 117.814L110.954 117.733L111.164 117.633L109 113.125ZM3.53949 70.6228C2.17842 81.3876 -0.117716 91.9171 -3.58243 98.7348L5.33243 103.265C9.61772 94.8329 12.0716 82.8624 13.4605 71.8772L3.53949 70.6228ZM-0.806682 105.709C-0.102736 105.96 1.12251 106.459 2.32414 107.024C2.91838 107.304 3.45983 107.578 3.89969 107.824C4.11816 107.946 4.29093 108.05 4.42017 108.134C4.55672 108.222 4.60142 108.259 4.58381 108.245L10.9162 100.505C9.69625 99.5071 7.89474 98.5936 6.58211 97.9759C5.12749 97.2914 3.60274 96.6649 2.55668 96.2913L-0.806682 105.709ZM12.2221 106.611C16.5825 97.8903 19.5486 85.2584 21.3205 73.3616L11.4295 71.8884C9.70142 83.4916 6.91749 94.8597 3.27786 102.139L12.2221 106.611ZM17.235 67.6995L9.36001 66.3245L7.64 76.1755L15.515 77.5505L17.235 67.6995ZM29.5461 75.0083C32.4839 81.7065 34.8355 90.7054 35.4019 96.143L45.3481 95.107C44.6645 88.5446 42.0162 78.5435 38.7039 70.9917L29.5461 75.0083ZM41.7814 100.423L49.0314 98.2981L46.2187 88.7019L38.9686 90.8269L41.7814 100.423ZM52.5879 92.8923C51.7639 86.1623 48.843 76.4339 45.5789 68.9917L36.4211 73.0083C39.407 79.8161 41.9862 88.5877 42.6621 94.1077L52.5879 92.8923ZM39.6034 66.199L32.7284 68.199L35.5217 77.801L42.3967 75.801L39.6034 66.199ZM76.875 82.875C76.6189 82.875 76.8777 82.8364 77.3444 83.0221C77.6049 83.1258 77.9107 83.2913 78.2131 83.5428C78.5168 83.7954 78.7455 84.0751 78.9076 84.337C79.2037 84.8153 79.2147 85.1317 79.1837 84.9236C79.1555 84.7338 79.125 84.3477 79.125 83.625H69.125C69.125 84.5273 69.157 85.4849 69.2928 86.3967C69.4259 87.2902 69.7026 88.466 70.4049 89.6005C72.1812 92.4699 75.1195 92.875 76.875 92.875V82.875ZM79.125 83.625V65.875H69.125V83.625H79.125ZM74.125 70.875H100.625V60.875H74.125V70.875ZM105.625 65.875V58.5H95.625V65.875H105.625ZM100.625 53.5H84.25V63.5H100.625V53.5ZM89.25 58.5V45.75H79.25V58.5H89.25ZM84.25 50.75H99.875V40.75H84.25V50.75ZM104.875 45.75V38.375H94.875V45.75H104.875ZM99.875 33.375H90.375V43.375H99.875V33.375ZM94.7996 40.7037C97.3834 35.7946 100.472 28.8459 103.17 22.9583L94.0797 18.7917C91.2782 24.9041 88.3666 31.4554 85.9504 36.0463L94.7996 40.7037ZM100.206 16.1316L92.7061 13.6316L89.5439 23.1184L97.0439 25.6184L100.206 16.1316ZM86.281 17.1358C84.9888 22.1872 82.2258 29.7594 79.9836 34.4797L89.0164 38.7703C91.5242 33.4906 94.5112 25.3128 95.969 19.6142L86.281 17.1358ZM82.7305 41.3014L87.3555 43.0514L90.8945 33.6986L86.2695 31.9486L82.7305 41.3014ZM89.125 33.375H69.5V43.375H89.125V33.375ZM71.2333 43.065L76.9833 40.94L73.5168 31.56L67.7668 33.685L71.2333 43.065ZM80.182 35.428C79.3359 30.3517 76.7714 22.7107 73.6589 16.8917L64.8411 21.6083C67.4786 26.5393 69.6641 33.1483 70.318 37.072L80.182 35.428ZM67.5808 14.5369L61.5808 16.6619L64.9192 26.0881L70.9192 23.9631L67.5808 14.5369ZM58.7779 23.6111C61.1949 28.4452 63.2733 34.9564 63.9362 39.1548L73.8138 37.5952C72.9767 32.2936 70.5551 24.8048 67.7221 19.1389L58.7779 23.6111ZM68.875 33.375H61.875V43.375H68.875V33.375ZM56.875 38.375V45.75H66.875V38.375H56.875ZM61.875 50.75H76.25V40.75H61.875V50.75ZM71.25 45.75V58.5H81.25V45.75H71.25ZM76.25 53.5H60.875V63.5H76.25V53.5ZM55.875 58.5V65.875H65.875V58.5H55.875ZM60.875 70.875H66.125V60.875H60.875V70.875ZM61.125 65.875V83.5H71.125V65.875H61.125ZM61.125 83.5C61.125 87.9329 61.5522 92.6441 64.5127 96.007C67.6513 99.5722 72.3345 100.25 76.875 100.25V90.25C72.7905 90.25 72.0987 89.4903 72.0186 89.3993C71.7603 89.1059 71.125 87.9421 71.125 83.5H61.125ZM76.875 100.25H91.5V90.25H76.875V100.25ZM91.5 100.25C94.1097 100.25 97.6477 100.278 100.048 99.764L97.9524 89.986C96.8523 90.2217 94.6403 90.25 91.5 90.25V100.25ZM103.961 94.2548C103.716 92.293 103.356 88.9111 103.24 87.0631L93.2597 87.6869C93.3942 89.8389 93.7838 93.457 94.0386 95.4952L103.961 94.2548ZM97.2024 82.486C96.0276 82.7377 93.1351 82.875 91.375 82.875V92.875C93.1149 92.875 96.9724 92.7623 99.2977 92.264L97.2024 82.486ZM91.375 82.875H76.875V92.875H91.375V82.875ZM113.25 1.375H48.875V11.375H113.25V1.375ZM43.875 6.375V63H53.875V6.375H43.875ZM53.6184 61.4189C51.2206 54.2255 46.6458 44.8329 41.7967 37.4937L33.4533 43.0063C37.8542 49.6671 42.0294 58.2745 44.1316 64.5811L53.6184 61.4189ZM35.7385 35.6195L28.9885 38.3695L32.7615 47.6305L39.5115 44.8805L35.7385 35.6195ZM26.6167 45.6205C28.4891 48.6631 30.28 52.1167 31.9972 55.6737L41.0028 51.3263C39.22 47.6333 37.2609 43.8369 35.1333 40.3795L26.6167 45.6205ZM36.2572 48.5059L18.2572 49.3809L18.7428 59.3691L36.7428 58.4941L36.2572 48.5059ZM22.4043 57.4985C31.0853 46.6473 40.5805 32.33 47.7374 20.9042L39.2626 15.5958C32.1695 26.92 22.9147 40.8527 14.5957 51.2515L22.4043 57.4985ZM45.6184 13.721L37.8684 10.0959L33.6316 19.154L41.3816 22.779L45.6184 13.721ZM31.3112 12.3234C27.8965 18.909 23.2369 26.882 18.2044 34.492L26.5456 40.008C31.7631 32.118 36.6035 23.8409 40.1888 16.9266L31.3112 12.3234ZM26.375 34.25C24.4057 31.6243 22.0288 28.7174 19.2418 25.7976L12.0082 32.7024C14.4712 35.2826 16.5943 37.8757 18.375 40.25L26.375 34.25ZM19.7624 32.0575C24.7158 24.7577 30.2153 14.375 34.4851 5.71002L25.5149 1.28997C21.2847 9.87495 16.0342 19.7423 11.4876 26.4425L19.7624 32.0575ZM31.7319 -1.19049L23.6069 -4.19049L20.1431 5.19048L28.2681 8.19048L31.7319 -1.19049ZM17.2039 -1.28351C14.6602 5.3787 10.3959 14.6324 6.42287 21.4948L15.0771 26.5052C19.3541 19.1176 23.8398 9.3713 26.5461 2.28351L17.2039 -1.28351ZM14.2855 20.4645C12.9283 19.1072 11.5822 17.8971 10.3448 16.7835L3.65518 24.2165C4.91782 25.3528 6.07174 26.3928 7.21446 27.5355L14.2855 20.4645ZM3.1923 17.2594L-1.8077 23.1344L5.8077 29.6156L10.8077 23.7406L3.1923 17.2594ZM-1.45429 29.99C3.9961 35.1981 9.95408 42.021 13.2971 47.2085L21.7029 41.7915C17.7959 35.729 11.2539 28.3019 5.45429 22.76L-1.45429 29.99ZM13.4038 41.6327C10.8374 45.299 8.27622 48.7133 5.84566 51.7515L13.6543 57.9985C16.2238 54.7867 18.9126 51.201 21.5962 47.3673L13.4038 41.6327ZM9.53282 49.8797L0.907815 50.2547L1.34219 60.2453L9.96719 59.8703L9.53282 49.8797ZM-3.84793 55.7696L-2.97293 64.1446L6.97293 63.1054L6.09793 54.7304L-3.84793 55.7696ZM2.31783 68.6149L21.9428 67.3649L21.3072 57.3851L1.68217 58.6351L2.31783 68.6149ZM16.625 62.375V114.5H26.625V62.375H16.625ZM21.625 119.5H29.875V109.5H21.625V119.5ZM34.875 114.5V61.875H24.875V114.5H34.875ZM30.1908 66.865L40.0658 66.24L39.4342 56.26L29.5592 56.885L30.1908 66.865ZM35.1647 63.2436C36.2962 65.8463 37.0599 68.2737 37.4823 70.28L47.2678 68.22C46.6902 65.4763 45.7038 62.4037 44.3353 59.2564L35.1647 63.2436ZM44.4703 73.7898L50.9703 70.7898L46.7797 61.7102L40.2797 64.7102L44.4703 73.7898ZM43.875 66.25V114.75H53.875V66.25H43.875ZM48.875 119.75H57.125V109.75H48.875V119.75ZM62.125 114.75V14.625H52.125V114.75H62.125ZM57.125 19.625H104.75V9.62499H57.125V19.625ZM99.75 14.625V104.125H109.75V14.625H99.75ZM99.75 104.125C99.75 104.368 99.728 104.281 99.7902 104.027C99.8639 103.726 100.07 103.136 100.604 102.551C101.144 101.96 101.73 101.689 102.061 101.579C102.338 101.487 102.459 101.498 102.242 101.515L103.008 111.485C103.991 111.41 106.273 111.173 107.989 109.293C109.678 107.444 109.75 105.168 109.75 104.125H99.75ZM102.625 101.5C100.73 101.5 95.4475 101.623 89.8422 101.38L89.4078 111.37C95.3025 111.627 101.02 111.5 102.625 111.5V101.5ZM85.2542 108.803C86.2312 110.562 87.2453 113.69 87.4092 115.084L97.3408 113.916C97.0047 111.06 95.5188 106.688 93.9958 103.947L85.2542 108.803ZM92.2969 119.499C100.105 119.621 106.33 119.446 110.737 117.814L107.263 108.436C104.92 109.304 100.645 109.629 92.4531 109.501L92.2969 119.499ZM111.164 117.633C113.6 116.463 115.593 114.694 116.827 112.055C117.957 109.636 118.25 106.897 118.25 104.125H108.25C108.25 106.353 107.981 107.364 107.767 107.82C107.657 108.056 107.525 108.287 106.836 108.617L111.164 117.633ZM118.25 104.125V6.375H108.25V104.125H118.25ZM216.75 45.5V50.5H221.75V45.5H216.75ZM154 45.5H149V50.5H154V45.5ZM154 34.125V29.125H149V34.125H154ZM216.75 34.125H221.75V29.125H216.75V34.125ZM216.75 64V69H221.75V64H216.75ZM154 64H149V69H154V64ZM154 52.5V47.5H149V52.5H154ZM216.75 52.5H221.75V47.5H216.75V52.5ZM216.75 82.625V87.625H221.75V82.625H216.75ZM154 82.625H149V87.625H154V82.625ZM154 71.125V66.125H149V71.125H154ZM216.75 71.125H221.75V66.125H216.75V71.125ZM144.5 26.75V21.75H139.5V26.75H144.5ZM144.5 90.125H139.5V95.125H144.5V90.125ZM226.625 90.125V95.125H231.625V90.125H226.625ZM226.625 26.75H231.625V21.75H226.625V26.75ZM186 26.75L181.291 25.0683L178.905 31.75H186V26.75ZM189.625 15.375V10.375H185.87L184.823 13.9809L189.625 15.375ZM236.125 15.375V20.375H241.125V15.375H236.125ZM236.125 6.875H241.125V1.875H236.125V6.875ZM132.5 6.875V1.875H127.5V6.875H132.5ZM132.5 15.375H127.5V20.375H132.5V15.375ZM179 15.375L183.932 16.197L184.902 10.375H179V15.375ZM176.375 26.75V31.75H180.147L181.183 28.1236L176.375 26.75ZM167.125 91.5L170.077 87.4641L167.257 85.4024L164.352 87.3397L167.125 91.5ZM128.125 107.25L126.859 102.413L118.12 104.7L124.698 110.891L128.125 107.25ZM134.5 114.5L130.5 117.5L132.554 120.238L135.85 119.314L134.5 114.5ZM175.5 97.625L178.065 101.917L184.544 98.0446L178.452 93.5891L175.5 97.625ZM193.625 98.25L190.231 94.5786L184.075 100.269L192.008 102.981L193.625 98.25ZM231.875 114.625L229.468 119.007L232.273 120.548L234.847 118.646L231.875 114.625ZM240.5 108.25L243.472 112.271L250.029 107.424L242.736 103.778L240.5 108.25ZM200.25 92.125L201.831 87.3816L199.026 86.4467L196.856 88.4536L200.25 92.125ZM216.75 40.5H154V50.5H216.75V40.5ZM159 45.5V34.125H149V45.5H159ZM154 39.125H216.75V29.125H154V39.125ZM211.75 34.125V45.5H221.75V34.125H211.75ZM216.75 59H154V69H216.75V59ZM159 64V52.5H149V64H159ZM154 57.5H216.75V47.5H154V57.5ZM211.75 52.5V64H221.75V52.5H211.75ZM216.75 77.625H154V87.625H216.75V77.625ZM159 82.625V71.125H149V82.625H159ZM154 76.125H216.75V66.125H154V76.125ZM211.75 71.125V82.625H221.75V71.125H211.75ZM139.5 26.75V90.125H149.5V26.75H139.5ZM144.5 95.125H226.625V85.125H144.5V95.125ZM231.625 90.125V26.75H221.625V90.125H231.625ZM226.625 21.75H186V31.75H226.625V21.75ZM190.709 28.4317C192.004 24.8041 193.285 20.7006 194.427 16.7691L184.823 13.9809C183.715 17.7994 182.496 21.6959 181.291 25.0683L190.709 28.4317ZM189.625 20.375H236.125V10.375H189.625V20.375ZM241.125 15.375V6.875H231.125V15.375H241.125ZM236.125 1.875H132.5V11.875H236.125V1.875ZM127.5 6.875V15.375H137.5V6.875H127.5ZM132.5 20.375H179V10.375H132.5V20.375ZM174.068 14.553C173.482 18.0679 172.531 22.0026 171.567 25.3764L181.183 28.1236C182.219 24.4973 183.268 20.1821 183.932 16.197L174.068 14.553ZM176.375 21.75H144.5V31.75H176.375V21.75ZM164.352 87.3397C156.402 92.6394 140.021 98.9686 126.859 102.413L129.391 112.087C142.979 108.531 160.598 101.861 169.899 95.6603L164.352 87.3397ZM124.698 110.891C126.551 112.635 129.111 115.648 130.5 117.5L138.5 111.5C136.889 109.352 133.949 105.865 131.552 103.609L124.698 110.891ZM135.85 119.314C149.515 115.483 166.705 108.707 178.065 101.917L172.935 93.3332C162.545 99.5433 146.235 106.017 133.15 109.686L135.85 119.314ZM178.452 93.5891L170.077 87.4641L164.173 95.5359L172.548 101.661L178.452 93.5891ZM192.008 102.981C206.416 107.907 220.892 114.297 229.468 119.007L234.282 110.243C225.108 105.203 210.084 98.593 195.242 93.5189L192.008 102.981ZM234.847 118.646L243.472 112.271L237.528 104.229L228.903 110.604L234.847 118.646ZM242.736 103.778C232.712 98.7657 216.602 92.3053 201.831 87.3816L198.669 96.8684C213.148 101.695 228.788 107.984 238.264 112.722L242.736 103.778ZM196.856 88.4536L190.231 94.5786L197.019 101.921L203.644 95.7964L196.856 88.4536ZM303.875 0.249993V-4.75001H301.037L299.582 -2.31269L303.875 0.249993ZM252.125 47.875L249.716 43.4934L243.88 46.7015L248.589 51.4105L252.125 47.875ZM257.875 55.25L253.456 57.5894L255.894 62.1942L260.394 59.5689L257.875 55.25ZM309 9.37499L313.069 6.4688L308.841 0.549813L304.829 6.61742L309 9.37499ZM361.25 54.625L358.736 58.947L363.091 61.4805L365.591 57.1057L361.25 54.625ZM367.375 46.375L370.911 49.9105L375.843 44.9786L369.588 41.8914L367.375 46.375ZM313.125 0.249993L317.197 -2.65092L315.702 -4.75001H313.125V0.249993ZM313.875 82.25V77.25H308.875V82.25H313.875ZM351.75 82.25V87.25H356.75V82.25H351.75ZM351.75 74H356.75V69H351.75V74ZM313.875 74H308.875V79H313.875V74ZM313.875 54.5V49.5H308.875V54.5H313.875ZM347 54.5V59.5H352V54.5H347ZM347 46.125H352V41.125H347V46.125ZM272.75 46.125V41.125H267.75V46.125H272.75ZM272.75 54.5H267.75V59.5H272.75V54.5ZM304.375 54.5H309.375V49.5H304.375V54.5ZM304.375 74V79H309.375V74H304.375ZM267.125 74V69H262.125V74H267.125ZM267.125 82.25H262.125V87.25H267.125V82.25ZM304.375 82.25H309.375V77.25H304.375V82.25ZM304.375 102.625V107.625H309.375V102.625H304.375ZM257 102.625V97.625H252V102.625H257ZM257 111.125H252V116.125H257V111.125ZM362.625 111.125V116.125H367.625V111.125H362.625ZM362.625 102.625H367.625V97.625H362.625V102.625ZM313.875 102.625H308.875V107.625H313.875V102.625ZM299.582 -2.31269C290.477 12.9413 270.431 32.1065 249.716 43.4934L254.534 52.2566C276.569 40.1435 298.023 19.8087 308.168 2.81268L299.582 -2.31269ZM248.589 51.4105C250.402 53.2233 252.653 56.0724 253.456 57.5894L262.294 52.9106C260.847 50.1776 257.848 46.5267 255.661 44.3395L248.589 51.4105ZM260.394 59.5689C281.917 47.0138 302.666 28.0207 313.171 12.1326L304.829 6.61742C295.334 20.9793 275.833 38.9862 255.356 50.9311L260.394 59.5689ZM304.931 12.2812C316.702 28.7598 339.183 47.5732 358.736 58.947L363.764 50.303C345.067 39.4268 323.798 21.4902 313.069 6.4688L304.931 12.2812ZM365.591 57.1057C366.953 54.7219 368.949 51.872 370.911 49.9105L363.839 42.8395C361.051 45.628 358.547 49.2781 356.909 52.1443L365.591 57.1057ZM369.588 41.8914C350.814 32.6249 329.708 14.9126 317.197 -2.65092L309.053 3.1509C322.542 22.0874 344.936 40.8751 365.162 50.8586L369.588 41.8914ZM313.125 -4.75001H303.875V5.24999H313.125V-4.75001ZM313.875 87.25H351.75V77.25H313.875V87.25ZM356.75 82.25V74H346.75V82.25H356.75ZM351.75 69H313.875V79H351.75V69ZM318.875 74V54.5H308.875V74H318.875ZM313.875 59.5H347V49.5H313.875V59.5ZM352 54.5V46.125H342V54.5H352ZM347 41.125H272.75V51.125H347V41.125ZM267.75 46.125V54.5H277.75V46.125H267.75ZM272.75 59.5H304.375V49.5H272.75V59.5ZM299.375 54.5V74H309.375V54.5H299.375ZM304.375 69H267.125V79H304.375V69ZM262.125 74V82.25H272.125V74H262.125ZM267.125 87.25H304.375V77.25H267.125V87.25ZM299.375 82.25V102.625H309.375V82.25H299.375ZM304.375 97.625H257V107.625H304.375V97.625ZM252 102.625V111.125H262V102.625H252ZM257 116.125H362.625V106.125H257V116.125ZM367.625 111.125V102.625H357.625V111.125H367.625ZM362.625 97.625H313.875V107.625H362.625V97.625ZM318.875 102.625V82.25H308.875V102.625H318.875ZM487 6.62499H492V1.62499H487V6.62499ZM478.25 6.62499V1.62499H473.25V6.62499H478.25ZM478.25 27.875V32.875H483.25V27.875H478.25ZM459.375 27.875H454.375V32.875H459.375V27.875ZM459.375 0.624995H464.375V-4.375H459.375V0.624995ZM450.5 0.624995V-4.375H445.5V0.624995H450.5ZM450.5 27.875V32.875H455.5V27.875H450.5ZM433.25 27.875H428.25V32.875H433.25V27.875ZM433.25 6.62499H438.25V1.62499H433.25V6.62499ZM424.75 6.62499V1.62499H419.75V6.62499H424.75ZM424.75 36.125H419.75V41.125H424.75V36.125ZM487 36.125V41.125H492V36.125H487ZM418.125 25.375H423.125V20.375H418.125V25.375ZM403 25.375H398V30.375H403V25.375ZM403 1.99999H408V-3.00001H403V1.99999ZM394.625 1.99999V-3.00001H389.625V1.99999H394.625ZM394.625 25.375V30.375H399.625V25.375H394.625ZM378.875 25.375V20.375H373.875V25.375H378.875ZM378.875 33.75H373.875V38.75H378.875V33.75ZM418.125 33.75V38.75H423.125V33.75H418.125ZM393.875 78.75L394.684 83.6841L398.924 82.989L398.875 78.6925L393.875 78.75ZM388.75 38.625L393.63 37.5353L392.604 32.9414L387.957 33.6883L388.75 38.625ZM381.75 39.75L380.957 34.8133L375.848 35.6344L376.843 40.7121L381.75 39.75ZM386.25 80H381.25V85.8864L387.059 84.9341L386.25 80ZM407.125 82.75L402.259 81.599L400.429 89.3352L408.195 87.6342L407.125 82.75ZM415.125 39.5L420.066 40.2637L420.785 35.6136L416.187 34.6141L415.125 39.5ZM406.5 37.625L407.562 32.7391L401.982 31.5261L401.517 37.2173L406.5 37.625ZM399.75 82.75L394.873 81.6487L393.806 86.3742L398.495 87.59L399.75 82.75ZM403.125 83.625L404.223 88.503L404.38 78.785L403.125 83.625ZM376.5 89.125L375.65 84.1977L370.377 85.1069L371.642 90.3068L376.5 89.125ZM378.75 98.375L373.892 99.5568L375.084 104.458L379.975 103.223L378.75 98.375ZM421.25 87.875L422.472 92.7233L426.76 91.6424L426.211 87.2548L421.25 87.875ZM420.25 79.875L425.211 79.2548L424.532 73.8185L419.18 74.9908L420.25 79.875ZM491.375 53.75V58.75H496.375V53.75H491.375ZM491.375 45.5H496.375V40.5H491.375V45.5ZM419.25 45.5V40.5H414.25V45.5H419.25ZM419.25 53.75H414.25V58.75H419.25V53.75ZM449.625 53.75L454.561 54.5462L455.496 48.75H449.625V53.75ZM447.25 65.375V70.375H451.154L452.101 66.5877L447.25 65.375ZM423.25 65.375V60.375H418.25V65.375H423.25ZM423.25 114.375H418.25V119.375H423.25V114.375ZM431.5 114.375V119.375H436.5V114.375H431.5ZM431.5 73.375V68.375H426.5V73.375H431.5ZM442.625 73.375H447.625V68.375H442.625V73.375ZM442.625 113.125H437.625V118.125H442.625V113.125ZM449.875 113.125V118.125H454.875V113.125H449.875ZM449.875 73.375V68.375H444.875V73.375H449.875ZM461.5 73.375H466.5V68.375H461.5V73.375ZM461.5 112.875H456.5V117.875H461.5V112.875ZM468.75 112.875V117.875H473.75V112.875H468.75ZM468.75 73.375V68.375H463.75V73.375H468.75ZM480.375 73.375H485.375V68.375H480.375V73.375ZM479 107.125V102.125H478.689L478.38 102.164L479 107.125ZM471.25 107.125L471.428 102.128L462.784 101.819L466.831 109.464L471.25 107.125ZM474 114.625L469.068 115.447L469.764 119.625H474V114.625ZM485.625 113.125L483.573 108.565L483.48 108.607L483.389 108.653L485.625 113.125ZM488.75 65.375H493.75V60.375H488.75V65.375ZM456.25 65.375L451.541 63.6933L449.155 70.375H456.25V65.375ZM460 53.75V48.75H456.324L455.228 52.2586L460 53.75ZM487 1.62499H478.25V11.625H487V1.62499ZM473.25 6.62499V27.875H483.25V6.62499H473.25ZM478.25 22.875H459.375V32.875H478.25V22.875ZM464.375 27.875V0.624995H454.375V27.875H464.375ZM459.375 -4.375H450.5V5.625H459.375V-4.375ZM445.5 0.624995V27.875H455.5V0.624995H445.5ZM450.5 22.875H433.25V32.875H450.5V22.875ZM438.25 27.875V6.62499H428.25V27.875H438.25ZM433.25 1.62499H424.75V11.625H433.25V1.62499ZM419.75 6.62499V36.125H429.75V6.62499H419.75ZM424.75 41.125H487V31.125H424.75V41.125ZM492 36.125V6.62499H482V36.125H492ZM418.125 20.375H403V30.375H418.125V20.375ZM408 25.375V1.99999H398V25.375H408ZM403 -3.00001H394.625V6.99999H403V-3.00001ZM389.625 1.99999V25.375H399.625V1.99999H389.625ZM394.625 20.375H378.875V30.375H394.625V20.375ZM373.875 25.375V33.75H383.875V25.375H373.875ZM378.875 38.75H418.125V28.75H378.875V38.75ZM423.125 33.75V25.375H413.125V33.75H423.125ZM398.875 78.6925C398.745 67.3943 396.562 50.6661 393.63 37.5353L383.87 39.7147C386.688 52.3339 388.755 68.3557 388.875 78.8075L398.875 78.6925ZM387.957 33.6883L380.957 34.8133L382.543 44.6866L389.543 43.5616L387.957 33.6883ZM376.843 40.7121C379.305 53.2665 381.25 69.5517 381.25 80H391.25C391.25 68.6983 389.195 51.7335 386.657 38.7879L376.843 40.7121ZM387.059 84.9341L394.684 83.6841L393.066 73.8159L385.441 75.0659L387.059 84.9341ZM411.991 83.901C414.787 72.0784 417.936 54.0459 420.066 40.2637L410.184 38.7363C408.064 52.4541 404.963 70.1716 402.259 81.599L411.991 83.901ZM416.187 34.6141L407.562 32.7391L405.438 42.5109L414.063 44.3859L416.187 34.6141ZM401.517 37.2173C400.409 50.7521 397.442 70.2693 394.873 81.6487L404.627 83.8513C407.308 71.9807 410.341 51.9979 411.483 38.0327L401.517 37.2173ZM398.495 87.59L401.87 88.465L404.38 78.785L401.005 77.91L398.495 87.59ZM402.027 78.747C392.037 80.9947 382.767 82.9707 375.65 84.1977L377.35 94.0523C384.733 92.7793 394.213 90.7553 404.223 88.503L402.027 78.747ZM371.642 90.3068L373.892 99.5568L383.608 97.1932L381.358 87.9432L371.642 90.3068ZM379.975 103.223C385.89 101.728 392.775 100.046 400.063 98.263C407.343 96.4822 415.015 94.6032 422.472 92.7233L420.028 83.0267C412.61 84.8968 404.97 86.7678 397.687 88.5495C390.412 90.3291 383.485 92.0217 377.525 93.5273L379.975 103.223ZM426.211 87.2548L425.211 79.2548L415.289 80.4952L416.289 88.4952L426.211 87.2548ZM419.18 74.9908L406.055 77.8658L408.195 87.6342L421.32 84.7592L419.18 74.9908ZM496.375 53.75V45.5H486.375V53.75H496.375ZM491.375 40.5H419.25V50.5H491.375V40.5ZM414.25 45.5V53.75H424.25V45.5H414.25ZM419.25 58.75H449.625V48.75H419.25V58.75ZM444.689 52.9538C444.086 56.6922 443.239 60.8032 442.399 64.1623L452.101 66.5877C453.011 62.9468 453.914 58.5578 454.561 54.5462L444.689 52.9538ZM447.25 60.375H423.25V70.375H447.25V60.375ZM418.25 65.375V114.375H428.25V65.375H418.25ZM423.25 119.375H431.5V109.375H423.25V119.375ZM436.5 114.375V73.375H426.5V114.375H436.5ZM431.5 78.375H442.625V68.375H431.5V78.375ZM437.625 73.375V113.125H447.625V73.375H437.625ZM442.625 118.125H449.875V108.125H442.625V118.125ZM454.875 113.125V73.375H444.875V113.125H454.875ZM449.875 78.375H461.5V68.375H449.875V78.375ZM456.5 73.375V112.875H466.5V73.375H456.5ZM461.5 117.875H468.75V107.875H461.5V117.875ZM473.75 112.875V73.375H463.75V112.875H473.75ZM468.75 78.375H480.375V68.375H468.75V78.375ZM475.375 73.375V105.75H485.375V73.375H475.375ZM475.375 105.75C475.375 105.909 475.36 105.699 475.441 105.338C475.535 104.921 475.806 104.091 476.574 103.324C477.341 102.556 478.171 102.285 478.588 102.191C478.949 102.11 479.159 102.125 479 102.125V112.125C479.41 112.125 481.817 112.223 483.645 110.395C485.473 108.567 485.375 106.16 485.375 105.75H475.375ZM478.38 102.164C478.401 102.161 478.356 102.167 478.218 102.175C478.09 102.183 477.919 102.191 477.703 102.198C477.271 102.211 476.717 102.219 476.063 102.219C474.756 102.219 473.129 102.189 471.428 102.128L471.072 112.122C474.46 112.243 478.143 112.271 479.62 112.086L478.38 102.164ZM466.831 109.464C467.823 111.339 468.815 113.93 469.068 115.447L478.932 113.803C478.435 110.82 476.927 107.161 475.669 104.786L466.831 109.464ZM474 119.625C479.207 119.625 483.859 119.598 487.861 117.597L483.389 108.653C481.891 109.402 479.793 109.625 474 109.625V119.625ZM487.677 117.685C490.114 116.588 491.828 114.768 492.776 112.367C493.605 110.266 493.75 107.948 493.75 105.875H483.75C483.75 106.724 483.715 107.366 483.653 107.858C483.59 108.35 483.513 108.598 483.474 108.695C483.446 108.768 483.46 108.705 483.551 108.61C483.641 108.516 483.687 108.514 483.573 108.565L487.677 117.685ZM493.75 105.875V65.375H483.75V105.875H493.75ZM488.75 60.375H456.25V70.375H488.75V60.375ZM460.959 67.0567C462.253 63.4338 463.545 59.1678 464.772 55.2414L455.228 52.2586C453.955 56.3321 452.747 60.3161 451.541 63.6933L460.959 67.0567ZM460 58.75H491.375V48.75H460V58.75ZM564.25 95.75H559.25V100.75H564.25V95.75ZM564.25 24V19H559.25V24H564.25ZM609.125 24V29H614.125V24H609.125ZM609.125 14.5H614.125V9.5H609.125V14.5ZM510.375 14.5V9.5H505.375V14.5H510.375ZM510.375 24H505.375V29H510.375V24ZM554.125 24H559.125V19H554.125V24ZM554.125 95.75V100.75H559.125V95.75H554.125ZM503.875 95.75V90.75H498.875V95.75H503.875ZM503.875 105H498.875V110H503.875V105ZM615.375 105V110H620.375V105H615.375ZM615.375 95.75H620.375V90.75H615.375V95.75ZM569.25 95.75V24H559.25V95.75H569.25ZM564.25 29H609.125V19H564.25V29ZM614.125 24V14.5H604.125V24H614.125ZM609.125 9.5H510.375V19.5H609.125V9.5ZM505.375 14.5V24H515.375V14.5H505.375ZM510.375 29H554.125V19H510.375V29ZM549.125 24V95.75H559.125V24H549.125ZM554.125 90.75H503.875V100.75H554.125V90.75ZM498.875 95.75V105H508.875V95.75H498.875ZM503.875 110H615.375V100H503.875V110ZM620.375 105V95.75H610.375V105H620.375ZM615.375 90.75H564.25V100.75H615.375V90.75ZM725.875 36.625V41.625H730.875V36.625H725.875ZM688.375 36.625H683.375V41.625H688.375V36.625ZM688.375 13.75V8.75H683.375V13.75H688.375ZM725.875 13.75H730.875V8.75H725.875V13.75ZM735 5.625H740V0.624998H735V5.625ZM679.875 5.625V0.624998H674.875V5.625H679.875ZM679.875 44.625H674.875V49.625H679.875V44.625ZM735 44.625V49.625H740V44.625H735ZM674.875 68.875L678.851 71.9072L681.321 68.6682L678.648 65.5941L674.875 68.875ZM657.875 51.75H652.875V54.0822L654.662 55.581L657.875 51.75ZM657.875 44.125V39.125H652.875V44.125H657.875ZM673.5 44.125V49.125H678.5V44.125H673.5ZM673.5 35.375H678.5V30.375H673.5V35.375ZM657.875 35.375H652.875V40.375H657.875V35.375ZM657.875 14.25L656.736 9.38156L652.875 10.2851V14.25H657.875ZM673.75 9.25L675.673 13.8654L682.296 11.1057L677.414 5.84774L673.75 9.25ZM667.25 2.25L670.914 -1.15226L668.467 -3.78735L665.19 -2.3061L667.25 2.25ZM627.75 12.25L626.957 7.31334L620.065 8.42087L623.331 14.5894L627.75 12.25ZM630.625 19.5L625.758 20.6452L626.815 25.1374L631.377 24.4431L630.625 19.5ZM648.875 16.375H653.875V10.2515L647.875 11.476L648.875 16.375ZM648.875 35.375V40.375H653.875V35.375H648.875ZM628.5 35.375V30.375H623.5V35.375H628.5ZM628.5 44.125H623.5V49.125H628.5V44.125ZM647.625 44.125L652.343 45.7804L654.678 39.125H647.625V44.125ZM626.125 83.25L622.409 79.9052L619.81 82.792L621.965 86.0235L626.125 83.25ZM630.75 91.75L626.007 93.3311L628.84 101.83L634.586 94.9571L630.75 91.75ZM648.875 59H653.875L644.242 57.1193L648.875 59ZM648.875 114.25H643.875V119.25H648.875V114.25ZM657.875 114.25V119.25H662.875V114.25H657.875ZM657.875 60.75L661.724 57.5583L652.875 46.8877V60.75H657.875ZM669.25 76.25L664.909 78.7307L668.651 85.2799L673.226 79.2822L669.25 76.25ZM711.625 102.875H706.625V107.875H711.625V102.875ZM711.625 86.75V81.75H706.625V86.75H711.625ZM736.5 86.75V91.75H741.5V86.75H736.5ZM736.5 78.625H741.5V73.625H736.5V78.625ZM711.625 78.625H706.625V83.625H711.625V78.625ZM711.625 63.75V58.75H706.625V63.75H711.625ZM739.25 63.75V68.75H744.25V63.75H739.25ZM739.25 55.5H744.25V50.5H739.25V55.5ZM675.25 55.5V50.5H670.25V55.5H675.25ZM675.25 63.75H670.25V68.75H675.25V63.75ZM702.375 63.75H707.375V58.75H702.375V63.75ZM702.375 78.625V83.625H707.375V78.625H702.375ZM678.125 78.625V73.625H673.125V78.625H678.125ZM678.125 86.75H673.125V91.75H678.125V86.75ZM702.375 86.75H707.375V81.75H702.375V86.75ZM702.375 102.875V107.875H707.375V102.875H702.375ZM669.625 102.875V97.875H664.625V102.875H669.625ZM669.625 111.25H664.625V116.25H669.625V111.25ZM742 111.25V116.25H747V111.25H742ZM742 102.875H747V97.875H742V102.875ZM725.875 31.625H688.375V41.625H725.875V31.625ZM693.375 36.625V13.75H683.375V36.625H693.375ZM688.375 18.75H725.875V8.75H688.375V18.75ZM720.875 13.75V36.625H730.875V13.75H720.875ZM735 0.624998H679.875V10.625H735V0.624998ZM674.875 5.625V44.625H684.875V5.625H674.875ZM679.875 49.625H735V39.625H679.875V49.625ZM740 44.625V5.625H730V44.625H740ZM678.648 65.5941C676.063 62.6219 665.245 51.4056 661.088 47.919L654.662 55.581C658.255 58.5944 668.687 69.3781 671.102 72.1559L678.648 65.5941ZM662.875 51.75V44.125H652.875V51.75H662.875ZM657.875 49.125H673.5V39.125H657.875V49.125ZM678.5 44.125V35.375H668.5V44.125H678.5ZM673.5 30.375H657.875V40.375H673.5V30.375ZM662.875 35.375V14.25H652.875V35.375H662.875ZM659.014 19.1184C665.113 17.691 670.881 15.8621 675.673 13.8654L671.827 4.63461C667.619 6.38786 662.387 8.05897 656.736 9.38156L659.014 19.1184ZM677.414 5.84774L670.914 -1.15226L663.586 5.65225L670.086 12.6523L677.414 5.84774ZM665.19 -2.3061C656.728 1.51933 640.939 5.06614 626.957 7.31334L628.543 17.1866C642.561 14.9338 659.522 11.2307 669.31 6.80609L665.19 -2.3061ZM623.331 14.5894C624.337 16.4903 625.389 19.0761 625.758 20.6452L635.492 18.3548C634.861 15.6739 633.413 12.2597 632.169 9.91056L623.331 14.5894ZM631.377 24.4431C637.129 23.5678 643.615 22.5516 649.875 21.274L647.875 11.476C641.885 12.6984 635.621 13.6822 629.873 14.5569L631.377 24.4431ZM643.875 16.375V35.375H653.875V16.375H643.875ZM648.875 30.375H628.5V40.375H648.875V30.375ZM623.5 35.375V44.125H633.5V35.375H623.5ZM628.5 49.125H647.625V39.125H628.5V49.125ZM642.907 42.4696C638.038 56.347 629.692 71.8119 622.409 79.9052L629.841 86.5948C638.308 77.1881 647.212 60.403 652.343 45.7804L642.907 42.4696ZM621.965 86.0235C623.497 88.3221 625.372 91.4279 626.007 93.3311L635.493 90.1689C634.378 86.8221 631.753 82.6779 630.285 80.4765L621.965 86.0235ZM634.586 94.9571C641.446 86.7516 648.304 73.7008 653.508 60.8807L644.242 57.1193C639.196 69.5492 632.804 81.4984 626.914 88.5429L634.586 94.9571ZM643.875 59V114.25H653.875V59H643.875ZM648.875 119.25H657.875V109.25H648.875V119.25ZM662.875 114.25V60.75H652.875V114.25H662.875ZM654.026 63.9417C658.24 69.0233 663.134 75.6244 664.909 78.7307L673.591 73.7693C671.366 69.8756 666.01 62.7267 661.724 57.5583L654.026 63.9417ZM673.226 79.2822L678.851 71.9072L670.899 65.8428L665.274 73.2178L673.226 79.2822ZM716.625 102.875V86.75H706.625V102.875H716.625ZM711.625 91.75H736.5V81.75H711.625V91.75ZM741.5 86.75V78.625H731.5V86.75H741.5ZM736.5 73.625H711.625V83.625H736.5V73.625ZM716.625 78.625V63.75H706.625V78.625H716.625ZM711.625 68.75H739.25V58.75H711.625V68.75ZM744.25 63.75V55.5H734.25V63.75H744.25ZM739.25 50.5H675.25V60.5H739.25V50.5ZM670.25 55.5V63.75H680.25V55.5H670.25ZM675.25 68.75H702.375V58.75H675.25V68.75ZM697.375 63.75V78.625H707.375V63.75H697.375ZM702.375 73.625H678.125V83.625H702.375V73.625ZM673.125 78.625V86.75H683.125V78.625H673.125ZM678.125 91.75H702.375V81.75H678.125V91.75ZM697.375 86.75V102.875H707.375V86.75H697.375ZM702.375 97.875H669.625V107.875H702.375V97.875ZM664.625 102.875V111.25H674.625V102.875H664.625ZM669.625 116.25H742V106.25H669.625V116.25ZM747 111.25V102.875H737V111.25H747ZM742 97.875H711.625V107.875H742V97.875ZM787.625 73H792.625V68H787.625V73ZM787.625 94.375V99.375H792.625V94.375H787.625ZM765.875 94.375H760.875V99.375H765.875V94.375ZM765.875 73V68H760.875V73H765.875ZM786.5 27.125H791.5V22.125H786.5V27.125ZM786.5 45.5V50.5H791.5V45.5H786.5ZM765.875 45.5H760.875V50.5H765.875V45.5ZM765.875 27.125V22.125H760.875V27.125H765.875ZM765.875 53.375V48.375H760.875V53.375H765.875ZM794.75 53.375V58.375H799.75V53.375H794.75ZM794.75 19.125H799.75V14.125H794.75V19.125ZM776.375 19.125L771.797 17.115L768.719 24.125H776.375V19.125ZM783.25 1.87499L787.961 3.55004L789.995 -2.16926L783.992 -3.06969L783.25 1.87499ZM773.25 0.374998L773.992 -4.56968L769.302 -5.27317L768.351 -0.626984L773.25 0.374998ZM767.875 19.125V24.125H771.358L772.565 20.8582L767.875 19.125ZM757.375 19.125V14.125H752.375V19.125H757.375ZM757.375 110.75H752.375V115.75H757.375V110.75ZM765.875 110.75V115.75H770.875V110.75H765.875ZM765.875 102.375V97.375H760.875V102.375H765.875ZM796 102.375V107.375H801V102.375H796ZM796 65H801V60H796V65ZM765.875 65H760.875V70H765.875V65ZM866 15.375V20.375H871V15.375H866ZM866 7H871V2H866V7ZM799.75 7V2H794.75V7H799.75ZM799.75 15.375H794.75V20.375H799.75V15.375ZM828.25 15.375H833.25V10.375H828.25V15.375ZM828.25 30.75V35.75H833.25V30.75H828.25ZM804.375 30.75V25.75H799.375V30.75H804.375ZM804.375 95.875H799.375V100.875H804.375V95.875ZM812.875 95.875V100.875H817.875V95.875H812.875ZM812.875 39.25V34.25H807.875V39.25H812.875ZM828.25 39.25H833.25V34.25H828.25V39.25ZM828.25 114.375H823.25V119.375H828.25V114.375ZM837 114.375V119.375H842V114.375H837ZM837 39.25V34.25H832V39.25H837ZM853.625 39.25H858.625V34.25H853.625V39.25ZM842.25 87.625L842.389 82.6269L834.459 82.4067L837.681 89.6557L842.25 87.625ZM844.75 95.75L839.777 96.2734L840.249 100.75H844.75V95.75ZM862.25 30.75H867.25V25.75H862.25V30.75ZM837 30.75H832V35.75H837V30.75ZM837 15.375V10.375H832V15.375H837ZM782.625 73V94.375H792.625V73H782.625ZM787.625 89.375H765.875V99.375H787.625V89.375ZM770.875 94.375V73H760.875V94.375H770.875ZM765.875 78H787.625V68H765.875V78ZM781.5 27.125V45.5H791.5V27.125H781.5ZM786.5 40.5H765.875V50.5H786.5V40.5ZM770.875 45.5V27.125H760.875V45.5H770.875ZM765.875 32.125H786.5V22.125H765.875V32.125ZM765.875 58.375H794.75V48.375H765.875V58.375ZM799.75 53.375V19.125H789.75V53.375H799.75ZM794.75 14.125H776.375V24.125H794.75V14.125ZM780.953 21.1349C783.244 15.9181 785.915 9.30547 787.961 3.55004L778.539 0.199946C776.585 5.69453 774.006 12.0819 771.797 17.115L780.953 21.1349ZM783.992 -3.06969L773.992 -4.56968L772.508 5.31968L782.508 6.81968L783.992 -3.06969ZM768.351 -0.626984C767.278 4.62157 765.223 11.8772 763.185 17.3917L772.565 20.8582C774.777 14.8728 776.972 7.12842 778.149 1.37698L768.351 -0.626984ZM767.875 14.125H757.375V24.125H767.875V14.125ZM752.375 19.125V110.75H762.375V19.125H752.375ZM757.375 115.75H765.875V105.75H757.375V115.75ZM770.875 110.75V102.375H760.875V110.75H770.875ZM765.875 107.375H796V97.375H765.875V107.375ZM801 102.375V65H791V102.375H801ZM796 60H765.875V70H796V60ZM770.875 65V53.375H760.875V65H770.875ZM871 15.375V7H861V15.375H871ZM866 2H799.75V12H866V2ZM794.75 7V15.375H804.75V7H794.75ZM799.75 20.375H828.25V10.375H799.75V20.375ZM823.25 15.375V30.75H833.25V15.375H823.25ZM828.25 25.75H804.375V35.75H828.25V25.75ZM799.375 30.75V95.875H809.375V30.75H799.375ZM804.375 100.875H812.875V90.875H804.375V100.875ZM817.875 95.875V39.25H807.875V95.875H817.875ZM812.875 44.25H828.25V34.25H812.875V44.25ZM823.25 39.25V114.375H833.25V39.25H823.25ZM828.25 119.375H837V109.375H828.25V119.375ZM842 114.375V39.25H832V114.375H842ZM837 44.25H853.625V34.25H837V44.25ZM848.625 39.25V86H858.625V39.25H848.625ZM848.625 86C848.625 86.1042 848.613 85.9091 848.699 85.5681C848.797 85.1833 849.043 84.5332 849.631 83.9106C850.838 82.6324 852.216 82.75 851.875 82.75V92.75C852.909 92.75 855.162 92.6176 856.901 90.7769C858.575 89.0044 858.625 86.8258 858.625 86H848.625ZM851.875 82.75C850.635 82.75 846.817 82.7499 842.389 82.6269L842.111 92.6231C846.683 92.7501 850.615 92.75 851.875 92.75V82.75ZM837.681 89.6557C838.629 91.7885 839.612 94.7035 839.777 96.2734L849.723 95.2266C849.388 92.0465 847.871 87.9615 846.819 85.5943L837.681 89.6557ZM844.75 100.75C848.102 100.75 851.067 100.722 853.587 100.496C856.099 100.27 858.563 99.8219 860.782 98.7607L856.468 89.7393C855.812 90.0531 854.713 90.3546 852.694 90.5356C850.683 90.7159 848.148 90.75 844.75 90.75V100.75ZM860.782 98.7607C863.343 97.5358 865.131 95.5991 866.147 93.1035C867.064 90.85 867.25 88.3803 867.25 86.125H857.25C857.25 87.9947 857.061 88.9 856.884 89.334C856.817 89.5001 856.77 89.5461 856.765 89.5523C856.758 89.5593 856.692 89.632 856.468 89.7393L860.782 98.7607ZM867.25 86.125V30.75H857.25V86.125H867.25ZM862.25 25.75H837V35.75H862.25V25.75ZM842 30.75V15.375H832V30.75H842ZM837 20.375H866V10.375H837V20.375Z" fill="white"/>
</svg>
